<svg xmlns="http://www.w3.org/2000/svg" xmlns:xlink="http://www.w3.org/1999/xlink" width="46.595" height="54.538" viewBox="0 0 46.595 54.538"><defs><style>.a{fill:#a3a6b9;stroke:#fff;stroke-width:2px;}.b{clip-path:url(#a);}.c{clip-path:url(#b);}</style><clipPath id="a"><rect class="a" width="46.595" height="54.538"/></clipPath><clipPath id="b"><rect class="a" width="19.342" height="15.721"/></clipPath></defs><g transform="translate(0.001 0)"><g transform="translate(-0.001 0)"><g class="b"><path class="a" d="M46.591,31.3q0,9.035,0,18.07c-.006,3.231-1.825,5.143-5.034,5.151q-18.225.042-36.45,0C1.852,54.513.01,52.641.007,49.434q-.014-18.3,0-36.6c0-3.211,1.843-5.1,5.089-5.071,1.554.014,2.692-.108,3.276-1.9A3.089,3.089,0,0,1,11.5,3.984c1.544-.028,3.09-.041,4.633,0a1.911,1.911,0,0,0,1.782-.929c2.779-3.891,7.178-4.1,10.3-.412a3.276,3.276,0,0,0,3.018,1.349c1.229-.089,2.47-.035,3.705-.011a3.525,3.525,0,0,1,3.745,2.61,1.4,1.4,0,0,0,1.67,1.144,13.329,13.329,0,0,1,1.544.006,4.622,4.622,0,0,1,4.692,4.869c.022,6.23.007,12.459.007,18.689M42.4,31.135q0-8.729-.009-17.458c0-.633.19-1.384-.678-1.7-1.769-.647-2.935.075-2.822,1.924.1,1.586-.489,2.027-2.026,2.017-8.909-.059-17.818-.028-26.727-.029-2.372,0-2.36,0-2.418-2.346-.013-.532.211-1.167-.439-1.524a2.016,2.016,0,0,0-3.091,1.71c-.006,11.587.013,23.174-.026,34.761,0,1.386.4,1.888,1.851,1.882q17.226-.074,34.452,0c1.474.006,1.978-.44,1.96-1.932-.067-5.767-.027-11.535-.028-17.3M23.256,11.7c3.344,0,6.689-.05,10.032.023,1.436.032,1.391-.8,1.4-1.792.008-1.012-.016-1.846-1.42-1.786-1.746.075-3.5.057-5.246-.006a2.865,2.865,0,0,1-2.955-2.23,1.836,1.836,0,0,0-1.8-1.607,1.788,1.788,0,0,0-1.71,1.526,2.972,2.972,0,0,1-3.2,2.324c-1.646.028-3.3.083-4.938-.011-1.489-.084-1.5.784-1.51,1.86s.116,1.755,1.477,1.724c3.291-.077,6.585-.025,9.877-.025" transform="translate(0 0)"/></g></g><g transform="translate(14.634 23.194)"><g class="c"><path class="a" d="M18.619.737a2.435,2.435,0,0,0-3.492,0L6.4,9.641,4.215,7.415a2.435,2.435,0,0,0-3.492,0,2.554,2.554,0,0,0,0,3.561l3.928,4.007a2.435,2.435,0,0,0,3.492,0L18.619,4.3a2.554,2.554,0,0,0,0-3.562" transform="translate(0 0.001)"/></g></g></g></svg>