<svg xmlns="http://www.w3.org/2000/svg" width="108.657" height="70.652" viewBox="0 0 108.657 70.652"><defs><style>.a{fill:#f53361;}</style></defs><g transform="translate(-2491.484 -439.485)"><path class="a" d="M2535.143,665.3a31.545,31.545,0,0,0,4.233-2.669c.434-.311.846-.041,1.225.146a35.426,35.426,0,0,1,9.55,6.737,34.235,34.235,0,0,1,9.876,19.749,53.733,53.733,0,0,1,.292,7.714c0,.8-.519.8-1.086.8-3.045,0-6.09.018-9.136.017q-28.311-.006-56.622-.018c-.368,0-.737-.018-1.1,0-.6.025-.809-.273-.836-.851-.419-8.835,1.69-16.91,7.155-23.991a35.471,35.471,0,0,1,12.428-10.105,1.579,1.579,0,0,1,1.847.131,20.331,20.331,0,0,0,2.946,1.906c.2.1.52.149.529.407.012.354-.359.335-.592.419a29.066,29.066,0,0,0-8.932,5.095,29.639,29.639,0,0,0-10.656,18.97c-.135.924-.159,1.864-.238,2.8-.055.646.24.931.883.886.233-.016.468,0,.7,0h56.621c1.639,0,1.691-.006,1.578-1.667a30.031,30.031,0,0,0-19.967-26.135C2535.689,665.582,2535.549,665.5,2535.143,665.3Z" transform="translate(0 -187.656)"/><path class="a" d="M2591.1,486.5a18.01,18.01,0,1,1-18.015,18.089A17.932,17.932,0,0,1,2591.1,486.5Zm.043,31.563a13.608,13.608,0,1,0-13.61-13.611A13.64,13.64,0,0,0,2591.146,518.059Z" transform="translate(-65.214 -47.009)"/><path class="a" d="M2837.829,453.823a13.076,13.076,0,1,1,13.058-13.055A13.04,13.04,0,0,1,2837.829,453.823Zm-.008-3.651a9.423,9.423,0,1,0-9.436-9.4A9.409,9.409,0,0,0,2837.821,450.172Z" transform="translate(-262.476 11.814)"/><path class="a" d="M2845.407,608.138c-5.623,0-11.246-.011-16.868.015a1.326,1.326,0,0,1-1.445-.882,14.5,14.5,0,0,0-1.081-2.006c-.395-.634-.182-.78.471-.778,3.422.013,6.845.005,10.268.005h21.92c1.083,0,1.124-.008,1.046-1.1a20.316,20.316,0,0,0-4.388-11.294,20.637,20.637,0,0,0-10.124-7.086c-.17-.055-.421-.049-.415-.3,0-.192.22-.212.364-.276a10.184,10.184,0,0,0,2.625-1.62,1.176,1.176,0,0,1,1.475-.154,25.079,25.079,0,0,1,9.288,7.624,26.076,26.076,0,0,1,4.965,17.015c-.027.8-.471.838-1.071.837Q2853.922,608.13,2845.407,608.138Z" transform="translate(-263.387 -115.757)"/><path class="a" d="M2770.182,597.03c-.119-.085-.273-.193-.425-.3-.591-.434-1.16-.9-1.779-1.292-.5-.318-.537-.635-.284-1.143a25.807,25.807,0,0,1,6.715-8.4,26.138,26.138,0,0,1,4.946-3.13,1.185,1.185,0,0,1,1.478.129,10.734,10.734,0,0,0,2.417,1.5c.207.1.539.146.5.444-.028.236-.333.232-.534.3a21.227,21.227,0,0,0-12.5,11.337C2770.469,597.025,2770.435,597.048,2770.182,597.03Z" transform="translate(-214.611 -115.825)"/></g></svg>