<svg xmlns="http://www.w3.org/2000/svg" width="90.001" height="70.33" viewBox="0 0 90.001 70.33"><defs><style>.a,.b{fill:#1fc599;}.b{stroke:#1fc599;}</style></defs><g transform="translate(-94.942)"><g transform="translate(94.942)"><path class="a" d="M2534.944,665.286a31.4,31.4,0,0,0,4.214-2.656c.432-.309.842-.04,1.219.145a35.259,35.259,0,0,1,9.507,6.706,34.079,34.079,0,0,1,9.831,19.659,53.527,53.527,0,0,1,.291,7.678c0,.793-.517.8-1.081.8-3.031,0-6.062.018-9.094.017q-28.182-.006-56.364-.018c-.366,0-.733-.018-1.1,0-.6.025-.8-.272-.833-.847-.417-8.795,1.683-16.832,7.123-23.881a35.308,35.308,0,0,1,12.371-10.059,1.571,1.571,0,0,1,1.838.131,20.229,20.229,0,0,0,2.933,1.9c.2.1.518.148.527.4.012.352-.357.333-.589.417a28.936,28.936,0,0,0-8.892,5.072,29.507,29.507,0,0,0-10.607,18.884c-.135.919-.158,1.855-.237,2.783-.054.644.239.927.879.882.232-.016.466,0,.7,0h56.363c1.631,0,1.683-.006,1.571-1.659a29.894,29.894,0,0,0-19.876-26.015C2535.487,665.568,2535.348,665.482,2534.944,665.286Z" transform="translate(-2491.484 -627.302)"/><path class="a" d="M2591.021,486.5a17.928,17.928,0,1,1-17.933,18.006A17.851,17.851,0,0,1,2591.021,486.5Zm.043,31.419a13.546,13.546,0,1,0-13.548-13.549A13.578,13.578,0,0,0,2591.063,517.915Z" transform="translate(-2556.773 -486.494)"/></g><path class="b" d="M131.8-712.977q0,2.208,0,4.416a3.71,3.71,0,0,1-.039.609,1,1,0,0,1-1.026.885.99.99,0,0,1-.973-.892,6.319,6.319,0,0,1-.048-.872q-.005-4.35,0-8.7c0-.679-.03-.708-.722-.709q-4.416,0-8.832,0a3.791,3.791,0,0,1-.7-.044.988.988,0,0,1-.81-1,.987.987,0,0,1,.793-.97,5.017,5.017,0,0,1,.913-.064q4.307-.007,8.613,0c.717,0,.741-.024.741-.734q0-4.307,0-8.613a5.355,5.355,0,0,1,.055-.871.977.977,0,0,1,1.01-.846.97.97,0,0,1,.969.839,4.621,4.621,0,0,1,.051.783q.005,4.372,0,8.744c0,.665.031.7.686.7q4.329,0,8.657,0a5.739,5.739,0,0,1,.871.053.97.97,0,0,1,.851,1,.973.973,0,0,1-.868.989,4.743,4.743,0,0,1-.7.034q-4.394,0-8.788,0c-.687,0-.711.025-.712.716Q131.8-715.251,131.8-712.977Z" transform="translate(41.575 754.241)"/></g></svg>