<svg xmlns="http://www.w3.org/2000/svg" xmlns:xlink="http://www.w3.org/1999/xlink" width="17.328" height="15.579" viewBox="0 0 17.328 15.579"><defs><style>.a{fill:#43bccd;}.b{clip-path:url(#a);}</style><clipPath id="a"><rect class="a" width="17.328" height="15.579"/></clipPath></defs><g class="b"><path class="a" d="M8.662,15.578H2.229a2.107,2.107,0,0,1-1.9-3.257Q3.552,6.737,6.774,1.155a2.109,2.109,0,0,1,3.746-.028Q13.8,6.764,17.042,12.419a2.1,2.1,0,0,1-1.827,3.158c-2.184.006-4.369,0-6.553,0m-.019-1.245q3.186,0,6.372,0c.9,0,1.291-.66.846-1.433q-1.633-2.839-3.271-5.674-1.547-2.68-3.1-5.359a1.072,1.072,0,0,0-.513-.527.87.87,0,0,0-1.142.5Q5.811,5.35,3.784,8.864,2.606,10.906,1.428,12.95a.873.873,0,0,0,.783,1.383c.09,0,.18,0,.271,0H8.643" transform="translate(0 -0.001)"/><path class="a" d="M130.546,80.323c-.073.847-.143,1.694-.22,2.541-.043.478-.1.955-.15,1.431a1.32,1.32,0,0,1-.065.261.537.537,0,0,1-1.052-.014A5.428,5.428,0,0,1,128.9,83.3c-.079-1.078-.136-2.157-.2-3.236a1.558,1.558,0,0,1,.04-.477.943.943,0,0,1,1.257-.684.651.651,0,0,1,.413.445,2.255,2.255,0,0,1,.067.261,3.614,3.614,0,0,1,.071.718" transform="translate(-120.954 -74.098)"/><path class="a" d="M129.668,198.935a.891.891,0,0,1-.929-.892.917.917,0,0,1,1.834-.025.891.891,0,0,1-.9.917" transform="translate(-120.996 -185.283)"/></g></svg>