<svg xmlns="http://www.w3.org/2000/svg" xmlns:xlink="http://www.w3.org/1999/xlink" width="31.139" height="43.737" viewBox="0 0 31.139 43.737"><defs><style>.a{fill:#43bccd;stroke:#43bccd;stroke-width:0.5px;}.b{clip-path:url(#a);}</style><clipPath id="a"><rect class="a" width="31.139" height="43.737"/></clipPath></defs><g transform="translate(2 2)"><g class="b" transform="translate(-2 -2)"><path class="a" d="M14.77,0c.531.073,1.066.118,1.593.226a13.611,13.611,0,0,1,9.258,6.565A12.453,12.453,0,0,1,27.4,12.175a13.575,13.575,0,0,1-5.83,12.873,16.379,16.379,0,0,1-3.4,1.76Q14,28.58,9.838,30.374a1.235,1.235,0,0,1-1.379-.124,1.18,1.18,0,0,1,.32-2.01c1.118-.483,2.24-.958,3.36-1.437,2.115-.9,4.24-1.788,6.343-2.719A10.957,10.957,0,0,0,23.168,20.1a11.048,11.048,0,0,0,1.893-5.225,11.092,11.092,0,0,0-2.684-8.54,10.95,10.95,0,0,0-6.692-3.812A11.032,11.032,0,0,0,7.112,4.5,10.923,10.923,0,0,0,2.6,11.488a11.138,11.138,0,0,0,2.605,9.779,10.914,10.914,0,0,0,2.885,2.349.361.361,0,0,0,.362.019c2.367-1.026,4.74-2.037,7.1-3.076a1.214,1.214,0,0,1,1.734.772,1.183,1.183,0,0,1-.7,1.372c-1.278.559-2.56,1.11-3.84,1.664s-2.565,1.1-3.839,1.667a1.53,1.53,0,0,1-1.441-.043,13.821,13.821,0,0,1-5.984-6.012,13.187,13.187,0,0,1-1.4-4.668A13.751,13.751,0,0,1,7.137,1.666,13.755,13.755,0,0,1,12.4.036,1,1,0,0,0,12.727,0Z" transform="translate(1.832 1.832)"/><path class="a" d="M62.04,215.26a5.848,5.848,0,0,1-5.936-5.814,1.172,1.172,0,0,1,.761-1.17q2.336-1,4.675-2c1.759-.752,3.522-1.493,5.275-2.259a1.223,1.223,0,0,1,1.494.32,1.187,1.187,0,0,1-.487,1.84c-1.206.521-2.415,1.034-3.623,1.55q-2.713,1.159-5.428,2.315c-.167.071-.2.15-.15.324a3.506,3.506,0,0,0,6.822-.412,4.572,4.572,0,0,0,.052-.61,1.176,1.176,0,0,1,1.2-1.142,1.16,1.16,0,0,1,1.16,1.155,5.874,5.874,0,0,1-4.822,5.817,4.746,4.746,0,0,1-.991.086" transform="translate(-46.373 -173.359)"/><path class="a" d="M28.521,37.99a9.674,9.674,0,0,1,2.616-6.416,9.558,9.558,0,0,1,5.3-2.94,6.4,6.4,0,0,1,1.986-.147A1.175,1.175,0,0,1,39.438,29.7a1.194,1.194,0,0,1-1.177,1.134,7.369,7.369,0,0,0-7.267,6.2,8.527,8.527,0,0,0-.093,1.179,1.187,1.187,0,0,1-2.328.305,1.637,1.637,0,0,1-.052-.527" transform="translate(-22.671 -22.619)"/></g></g></svg>