<svg xmlns="http://www.w3.org/2000/svg" xmlns:xlink="http://www.w3.org/1999/xlink" width="64.831" height="47.737" viewBox="0 0 64.831 47.737"><defs><style>.a{fill:#a3a6b9;stroke:#fff;stroke-width:2px;}.b{clip-path:url(#a);}</style><clipPath id="a"><rect class="a" width="64.831" height="47.737"/></clipPath></defs><g class="b"><path class="a" d="M161.439,24.04a32.094,32.094,0,0,1-9.062,22.274c-1.614,1.691-3.37,1.873-4.721.558-1.415-1.377-1.332-3.019.243-4.791,9.817-11.05,9.828-25.479.028-36.391-1.6-1.779-1.7-3.421-.3-4.778,1.421-1.38,3.164-1.2,4.871.592a31.982,31.982,0,0,1,8.946,22.537" transform="translate(-96.607 0)"/><path class="a" d="M11.861.028A3.1,3.1,0,0,1,14.5,1.908a2.834,2.834,0,0,1-.552,3.3,34.493,34.493,0,0,0-4.024,5.233,26.238,26.238,0,0,0,3.159,31.172,10.948,10.948,0,0,1,.986,1.163,3.045,3.045,0,0,1-.411,4.14,2.87,2.87,0,0,1-4.122-.129,30.359,30.359,0,0,1-6.87-10C-2.544,25.106.058,10.486,8.945,1.5A3.892,3.892,0,0,1,11.861.028" transform="translate(0 -0.018)"/><path class="a" d="M39.9,42.306A18.681,18.681,0,0,1,44.8,29.724c1.533-1.732,3.312-1.986,4.758-.76,1.473,1.249,1.44,3.146-.083,4.925a12.579,12.579,0,0,0-.118,16.991c.864,1.036,1.579,2.081,1.131,3.519-.776,2.491-3.608,2.978-5.506.9A18.682,18.682,0,0,1,39.9,42.306" transform="translate(-26.284 -18.579)"/><path class="a" d="M129.164,42.4a18.706,18.706,0,0,1-5.29,12.9c-1.6,1.654-3.168,1.762-4.589.391-1.29-1.244-1.273-3,.045-4.545,4.76-5.6,4.773-11.8.037-17.5-1.382-1.664-1.376-3.426.015-4.668,1.436-1.282,3.007-1.114,4.609.552A18.666,18.666,0,0,1,129.164,42.4" transform="translate(-77.954 -18.534)"/><path class="a" d="M90.2,59.923a5.156,5.156,0,0,1-10.311.1,5.156,5.156,0,1,1,10.311-.1" transform="translate(-52.627 -36.089)"/></g></svg>