<svg xmlns="http://www.w3.org/2000/svg" width="15.973" height="15.906" viewBox="0 0 15.973 15.906"><defs><style>.a{fill:#43bccd;}</style></defs><path class="a" d="M86.638,113.076l-3.816,3.817a3.235,3.235,0,0,1-4.467,0,3.165,3.165,0,0,1,0-4.467l3.435-3.435A1,1,0,0,1,83.2,110.4L79.77,113.84a1.16,1.16,0,0,0,0,1.639,1.187,1.187,0,0,0,1.638,0l3.816-3.817a3.32,3.32,0,0,0,0-4.69,3.4,3.4,0,0,0-4.691,0l-5.342,5.341a3.306,3.306,0,0,0,1.791,5.607,1,1,0,0,1-.165,1.986,1.208,1.208,0,0,1-.167-.013,5.31,5.31,0,0,1-2.873-8.994l5.342-5.341a5.316,5.316,0,1,1,7.519,7.518Z" transform="translate(-72.219 -104)"/></svg>