<svg xmlns="http://www.w3.org/2000/svg" xmlns:xlink="http://www.w3.org/1999/xlink" width="44.738" height="47.737" viewBox="0 0 44.738 47.737"><defs><style>.a{fill:#a3a6b9;}.b{clip-path:url(#a);}</style><clipPath id="a"><rect class="a" width="44.738" height="47.737"/></clipPath></defs><g class="b"><path class="a" d="M7.3,177.5a2.1,2.1,0,0,1,1.285.422c.312.212.614.436.928.644a.807.807,0,0,0,1.263-.574c.056-.355.116-.709.184-1.062a2.283,2.283,0,0,1,2.295-1.961c1.1-.027,2.192-.023,3.288,0a2.289,2.289,0,0,1,2.323,1.99c.062.319.111.641.173.96a.831.831,0,0,0,1.4.571c.24-.165.475-.336.71-.509a2.289,2.289,0,0,1,3.088.178c.817.781,1.613,1.584,2.4,2.4a2.254,2.254,0,0,1,.255,2.88c-.2.3-.419.585-.624.88-.472.679-.185,1.3.644,1.416a3.115,3.115,0,0,1,2.342.978,2.215,2.215,0,0,1,.5,1.372c0,1.182.012,2.363,0,3.545a2.263,2.263,0,0,1-1.851,2.162c-.337.062-.674.119-1.011.18-.826.149-1.077.738-.6,1.412.167.238.342.471.508.71a2.28,2.28,0,0,1-.159,3.054c-.777.842-1.594,1.652-2.434,2.433a2.29,2.29,0,0,1-2.936.2c-.286-.188-.557-.4-.839-.593a.814.814,0,0,0-1.376.574c-.061.354-.124.708-.192,1.061a2.253,2.253,0,0,1-2.2,1.868c-1.147.017-2.295.016-3.442,0a2.241,2.241,0,0,1-2.215-1.789c-.1-.416-.149-.842-.218-1.264a.826.826,0,0,0-1.246-.546c-.282.193-.557.4-.833.6a2.294,2.294,0,0,1-3.095-.145q-1.238-1.157-2.4-2.4a2.312,2.312,0,0,1-.189-3.018c.173-.255.36-.5.534-.754a.819.819,0,0,0-.552-1.4c-.285-.057-.57-.118-.857-.165a2.359,2.359,0,0,1-2.116-2.378q-.041-1.566,0-3.134a2.339,2.339,0,0,1,2.06-2.435c.268-.055.539-.1.81-.134.858-.116,1.139-.739.644-1.443-.177-.252-.363-.5-.541-.75a2.289,2.289,0,0,1,.185-2.973c.8-.842,1.638-1.655,2.468-2.471a2.2,2.2,0,0,1,1.655-.6m-1.107,7.136a1.051,1.051,0,0,1-.067.209,12.4,12.4,0,0,0-.977,2.37c-.07.242-.273.276-.483.309-.676.105-1.351.219-2.027.326-.348.055-.556.208-.551.6q.021,1.387,0,2.774c0,.383.159.547.536.6.694.1,1.382.244,2.075.354a.548.548,0,0,1,.5.435,11.506,11.506,0,0,0,.878,2.134.6.6,0,0,1-.064.707c-.418.563-.811,1.146-1.229,1.71a.474.474,0,0,0,.031.719q1.01.987,2,1.993a.555.555,0,0,0,.851.036c.543-.416,1.115-.8,1.666-1.2a.553.553,0,0,1,.66-.056,10.45,10.45,0,0,0,2.13.885.579.579,0,0,1,.457.543c.091.661.222,1.316.323,1.976.058.376.222.575.639.566q1.361-.03,2.723,0c.41.008.582-.166.636-.558.093-.661.226-1.315.329-1.975a.586.586,0,0,1,.458-.547,8.772,8.772,0,0,0,2.082-.865.649.649,0,0,1,.795.082c.535.4,1.094.767,1.628,1.167a.506.506,0,0,0,.764-.04c.666-.666,1.341-1.322,2.017-1.978a.515.515,0,0,0,.035-.772c-.407-.551-.794-1.117-1.2-1.667a.619.619,0,0,1-.071-.748,8.539,8.539,0,0,0,.863-2.082.577.577,0,0,1,.538-.467c.693-.109,1.381-.253,2.074-.356.347-.052.522-.2.519-.562q-.012-1.413,0-2.826a.522.522,0,0,0-.514-.581c-.676-.1-1.35-.231-2.028-.32a.6.6,0,0,1-.575-.477,9.542,9.542,0,0,0-.865-2.082.592.592,0,0,1,.063-.743c.414-.544.794-1.115,1.2-1.665a.518.518,0,0,0-.046-.772c-.681-.675-1.361-1.351-2.031-2.037a.464.464,0,0,0-.711-.042,12,12,0,0,1-1.232.951c-.5.272-.9.6-1.523.235a8.291,8.291,0,0,0-1.918-.814c-.236-.066-.282-.271-.316-.482-.107-.676-.227-1.35-.326-2.027a.55.55,0,0,0-.651-.544c-.89.023-1.782.028-2.671,0-.473-.017-.635.2-.7.619-.093.643-.226,1.281-.309,1.926a.6.6,0,0,1-.483.574,9.027,9.027,0,0,0-2.034.849.642.642,0,0,1-.8-.065c-.56-.423-1.144-.814-1.711-1.227a.449.449,0,0,0-.675.048q-1.024,1.047-2.072,2.069a.431.431,0,0,0-.057.664c.413.546.8,1.109,1.206,1.663a.846.846,0,0,1,.23.486" transform="translate(0 -156.965)"/><path class="a" d="M225.842,5.663A2.2,2.2,0,0,1,225.43,7.1c-.13.18-.275.352-.387.544-.232.4-.1.693.346.8,2.193.511,2.414.791,2.414,3.06,0,.548,0,1.1,0,1.644a1.98,1.98,0,0,1-1.707,2.057c-.168.034-.339.051-.506.085-.736.149-.87.469-.386,1.057a1.974,1.974,0,0,1,.523,2.173,7.618,7.618,0,0,1-3.114,3.156,1.692,1.692,0,0,1-1.759-.215c-.246-.155-.471-.343-.717-.5-.361-.227-.718-.094-.751.325-.154,1.935-1.061,2.612-3.069,2.481-.529-.034-1.062,0-1.592-.007a1.965,1.965,0,0,1-2.093-1.726c-.043-.2-.063-.406-.105-.607-.128-.6-.406-.71-.9-.362-.2.138-.393.275-.6.4a1.994,1.994,0,0,1-2.513-.2c-.68-.625-1.331-1.285-1.962-1.96a2.006,2.006,0,0,1-.219-2.43c.16-.263.362-.5.525-.76a.462.462,0,0,0-.277-.761,4.917,4.917,0,0,0-.654-.13,2.035,2.035,0,0,1-1.879-2.184q-.015-1.156,0-2.312a2.042,2.042,0,0,1,1.834-2.176c.236-.043.477-.066.707-.129a.438.438,0,0,0,.28-.71c-.1-.177-.237-.335-.355-.5a2.067,2.067,0,0,1,.143-2.851c.588-.644,1.211-1.259,1.853-1.85a2.047,2.047,0,0,1,2.694-.073c.945.775,1.272.557,1.408-.543A1.978,1.978,0,0,1,214.866,0q1.053,0,2.107,0a2,2,0,0,1,2.289,1.864c.154,1.1.356,1.348,1.445.567a1.95,1.95,0,0,1,2.779.2c.633.6,1.241,1.228,1.846,1.856a1.884,1.884,0,0,1,.512,1.17m-2.124.179a.854.854,0,0,0-.115-.19c-.468-.476-.943-.945-1.411-1.421-.191-.193-.364-.121-.547.008-.391.277-.791.541-1.174.829a.692.692,0,0,1-.811.058A7.739,7.739,0,0,0,218,4.452a.5.5,0,0,1-.409-.458c-.076-.507-.179-1.011-.26-1.518a.425.425,0,0,0-.481-.414c-.6.009-1.2.007-1.8,0-.338,0-.486.146-.522.485-.05.459-.152.911-.226,1.367a.625.625,0,0,1-.506.569,5.778,5.778,0,0,0-1.562.642.679.679,0,0,1-.88-.087c-.356-.293-.757-.53-1.127-.806a.405.405,0,0,0-.624.04c-.413.433-.836.858-1.272,1.268a.426.426,0,0,0-.048.664c.3.4.569.814.869,1.209a.541.541,0,0,1,.069.659,8.791,8.791,0,0,0-.69,1.657.728.728,0,0,1-.661.549c-.424.058-.842.153-1.266.209a.5.5,0,0,0-.507.574c.012.565.014,1.13,0,1.695-.009.342.135.49.47.533.491.064.977.17,1.467.25a.523.523,0,0,1,.458.415,7.466,7.466,0,0,0,.709,1.7.578.578,0,0,1-.047.709c-.3.413-.585.844-.888,1.258a.385.385,0,0,0,.053.582c.431.416.859.836,1.269,1.273.244.26.454.225.711.026.365-.282.751-.538,1.123-.812a.657.657,0,0,1,.809-.042,1.519,1.519,0,0,0,.507.243,2.064,2.064,0,0,1,1.808,2.389c0,.333.193.493.526.492.582,0,1.164-.009,1.746,0,.32.006.458-.146.5-.449.076-.49.2-.973.26-1.464a.6.6,0,0,1,.457-.545,8.455,8.455,0,0,0,1.613-.66.74.74,0,0,1,.938.107c.318.259.665.482.986.738a.444.444,0,0,0,.7-.045c.4-.427.808-.838,1.232-1.237a.45.45,0,0,0,.035-.708c-.286-.363-.535-.754-.82-1.117a.6.6,0,0,1-.064-.71,5.261,5.261,0,0,0,.523-1.167,1.269,1.269,0,0,1,1.28-1.114c1.357-.158,1.354-.21,1.35-1.564,0-1.451.123-1.264-1.219-1.446a1.663,1.663,0,0,1-1.456-1.129c-.552-1.149-.626-2.053.35-2.939a.679.679,0,0,0,.229-.484" transform="translate(-183.067 0)"/><path class="a" d="M81.841,263.239a6.5,6.5,0,1,1,13,.161,6.5,6.5,0,0,1-13-.161m2.077.043a4.422,4.422,0,1,0,8.845-.03,4.423,4.423,0,1,0-8.845.03" transform="translate(-73.429 -230.393)"/><path class="a" d="M278.655,69.318a5.225,5.225,0,0,1-5.256,5.3,5.3,5.3,0,1,1,5.256-5.3m-5.282-3.244a3.178,3.178,0,0,0-3.268,3.229,3.29,3.29,0,0,0,3.223,3.323,3.38,3.38,0,0,0,3.336-3.246,3.307,3.307,0,0,0-3.29-3.306" transform="translate(-240.496 -57.438)"/></g></svg>