<svg xmlns="http://www.w3.org/2000/svg" xmlns:xlink="http://www.w3.org/1999/xlink" width="37.497" height="43.889" viewBox="0 0 37.497 43.889"><defs><style>.a{fill:#1fc599;}.b{clip-path:url(#a);}.c{clip-path:url(#b);}</style><clipPath id="a"><rect class="a" width="37.497" height="43.889"/></clipPath><clipPath id="b"><rect class="a" width="15.565" height="12.651"/></clipPath></defs><g transform="translate(-526.251 -95.869)"><g transform="translate(526.251 95.869)"><g class="b"><path class="a" d="M37.493,25.185q0,7.271,0,14.542c0,2.6-1.469,4.139-4.051,4.145q-14.666.034-29.332,0a3.738,3.738,0,0,1-4.1-4.093q-.012-14.729,0-29.457A3.711,3.711,0,0,1,4.1,6.244c1.25.011,2.167-.087,2.636-1.53A2.486,2.486,0,0,1,9.252,3.206c1.242-.023,2.486-.033,3.728,0a1.538,1.538,0,0,0,1.434-.747c2.236-3.131,5.776-3.3,8.287-.332A2.636,2.636,0,0,0,25.129,3.21c.989-.072,1.988-.028,2.982-.009a2.836,2.836,0,0,1,3.014,2.1,1.124,1.124,0,0,0,1.344.92,10.726,10.726,0,0,1,1.242.005,3.719,3.719,0,0,1,3.776,3.918c.018,5.013.005,10.026.006,15.039m-3.37-.13q0-7.025-.007-14.049c0-.509.153-1.114-.546-1.37-1.423-.52-2.362.06-2.271,1.548.078,1.276-.393,1.632-1.631,1.624-7.169-.048-14.339-.022-21.508-.023-1.909,0-1.9,0-1.946-1.888-.011-.428.17-.939-.353-1.227a1.623,1.623,0,0,0-2.487,1.376c-.005,9.325.011,18.649-.021,27.973,0,1.115.324,1.52,1.49,1.515q13.862-.06,27.725,0c1.186,0,1.591-.354,1.578-1.555-.054-4.641-.022-9.283-.022-13.924M18.714,9.414c2.691,0,5.383-.04,8.073.019,1.155.025,1.119-.648,1.125-1.442.007-.815-.013-1.485-1.143-1.437-1.4.06-2.816.046-4.222,0A2.306,2.306,0,0,1,20.17,4.753,1.478,1.478,0,0,0,18.719,3.46a1.439,1.439,0,0,0-1.376,1.228,2.391,2.391,0,0,1-2.577,1.871c-1.325.023-2.653.066-3.974-.008-1.2-.067-1.209.631-1.216,1.5s.093,1.413,1.188,1.387c2.648-.062,5.3-.02,7.949-.02" transform="translate(0 0)"/></g></g><g transform="translate(538.028 114.534)"><g class="c"><path class="a" d="M14.983.593a1.959,1.959,0,0,0-2.81,0L5.148,7.758,3.392,5.967a1.959,1.959,0,0,0-2.81,0,2.055,2.055,0,0,0,0,2.866l3.161,3.224a1.959,1.959,0,0,0,2.81,0l8.43-8.6a2.055,2.055,0,0,0,0-2.866" transform="translate(0 0.001)"/></g></g></g></svg>