<svg xmlns="http://www.w3.org/2000/svg" xmlns:xlink="http://www.w3.org/1999/xlink" width="43.99" height="43.889" viewBox="0 0 43.99 43.889"><defs><style>.a{fill:#a3a6b9;}.b{clip-path:url(#a);}</style><clipPath id="a"><rect class="a" width="43.99" height="43.889"/></clipPath></defs><g class="b"><path class="a" d="M27.033,40.6,40.794,3.3,3.7,16.746c.08.494.438.539.69.675,4.038,2.18,8.092,4.33,12.114,6.539a1.136,1.136,0,0,0,1.6-.29Q23.425,18.3,28.785,12.976a6.058,6.058,0,0,1,.923-.825,1.4,1.4,0,0,1,1.886.209,1.4,1.4,0,0,1,.23,1.885,5.256,5.256,0,0,1-.748.853Q25.26,20.921,19.435,26.736c-1.357,1.355-1.661,1.407-3.33.523q-6.952-3.682-13.9-7.376c-.152-.081-.3-.167-.454-.249a3.011,3.011,0,0,1,.372-5.614Q8.148,11.8,14.176,9.6L38.571.677c.324-.118.651-.228.972-.356a3.07,3.07,0,0,1,4.152,4.093C42.355,8.038,41.035,11.67,39.707,15.3q-4.676,12.781-9.352,25.561c-.142.389-.281.779-.446,1.159a3.053,3.053,0,0,1-5.47.323Q21.5,36.872,18.633,31.362a1.5,1.5,0,0,1,.589-2.136A1.521,1.521,0,0,1,21.385,30c1.691,3.126,3.337,6.275,5,9.415.175.329.357.654.646,1.181" transform="translate(0 0)"/></g></svg>