<svg xmlns="http://www.w3.org/2000/svg" xmlns:xlink="http://www.w3.org/1999/xlink" width="15.482" height="15.479" viewBox="0 0 15.482 15.479"><defs><style>.a{fill:#43bccd;}.b{clip-path:url(#a);}</style><clipPath id="a"><rect class="a" width="15.482" height="15.479"/></clipPath></defs><g class="b"><path class="a" d="M12.849,1.914c-.013-.236-.026-.465-.038-.693-.009-.178-.027-.355-.026-.533A.713.713,0,0,1,13.455,0,.7.7,0,0,1,14.187.6c.028.219.036.44.049.661q.053.889.1,1.779c.018.309.041.619.052.928a.716.716,0,0,1-.814.727c-.513-.062-1.027-.113-1.54-.17l-1.168-.131-.548-.058A.715.715,0,0,1,9.7,3.611a.7.7,0,0,1,.677-.682,7.9,7.9,0,0,1,.848.077c.234.023.468.052.7.077a.553.553,0,0,0,.071,0,5.111,5.111,0,0,0-.6-.492,6.223,6.223,0,0,0-1.612-.826,6.409,6.409,0,0,0-1.72-.328A6.324,6.324,0,0,0,1.481,6.87,6.27,6.27,0,0,0,1.615,9.3a6.1,6.1,0,0,0,1.062,2.215,6.286,6.286,0,0,0,3.729,2.4,5.935,5.935,0,0,0,1.411.143,6.33,6.33,0,0,0,6.177-5.434,7.056,7.056,0,0,0,.064-.892.708.708,0,0,1,1.406-.115,2.728,2.728,0,0,1-.006.653,7.422,7.422,0,0,1-.251,1.5,7.76,7.76,0,0,1-2.623,4,7.729,7.729,0,0,1-3.8,1.632,7.786,7.786,0,0,1-4.009-.518A7.572,7.572,0,0,1,2.6,13.527,7.743,7.743,0,0,1,.087,8.9a7.789,7.789,0,0,1-.063-1.76A7.691,7.691,0,0,1,1.98,2.573,7.757,7.757,0,0,1,3.8,1.077,7.66,7.66,0,0,1,6.5.1,7.453,7.453,0,0,1,7.918,0,7.742,7.742,0,0,1,10.944.7a7.641,7.641,0,0,1,1.823,1.165c.017.015.036.029.054.042a.134.134,0,0,0,.028.009" transform="translate(0 -0.001)"/><path class="a" d="M272.237,135.164c0,.776,0,1.551,0,2.327a.753.753,0,0,1-.225.566c-.3.293-.589.588-.883.883l-.85.854c-.219.22-.434.443-.659.657a.709.709,0,0,1-1.172-.309.691.691,0,0,1,.2-.725l.771-.775q.672-.673,1.345-1.345a.2.2,0,0,0,.055-.163q0-2.155,0-4.309a.755.755,0,0,1,.194-.527.711.711,0,0,1,1.171.21.831.831,0,0,1,.057.311q0,1.172,0,2.344" transform="translate(-263.789 -129.799)"/></g></svg>