<svg xmlns="http://www.w3.org/2000/svg" width="92" height="70.33" viewBox="0 0 92 70.33"><defs><style>.a{fill:#6d32a5;}</style></defs><g transform="translate(-71.542)"><g transform="translate(95.014)"><path class="a" d="M2534.944,665.286a31.4,31.4,0,0,0,4.214-2.656c.432-.309.842-.04,1.219.145a35.259,35.259,0,0,1,9.507,6.706,34.079,34.079,0,0,1,9.831,19.659,53.527,53.527,0,0,1,.291,7.678c0,.793-.517.8-1.081.8-3.031,0-6.062.018-9.094.017q-28.182-.006-56.364-.018c-.366,0-.733-.018-1.1,0-.6.025-.8-.272-.833-.847-.417-8.795,1.683-16.832,7.123-23.881a35.308,35.308,0,0,1,12.371-10.059,1.571,1.571,0,0,1,1.838.131,20.229,20.229,0,0,0,2.933,1.9c.2.1.518.148.527.4.012.352-.357.333-.589.417a28.936,28.936,0,0,0-8.892,5.072,29.507,29.507,0,0,0-10.607,18.884c-.135.919-.158,1.855-.237,2.783-.054.644.239.927.879.882.232-.016.466,0,.7,0h56.363c1.631,0,1.683-.006,1.571-1.659a29.894,29.894,0,0,0-19.876-26.015C2535.487,665.568,2535.348,665.482,2534.944,665.286Z" transform="translate(-2491.484 -627.302)"/><path class="a" d="M2591.021,486.5a17.928,17.928,0,1,1-17.933,18.006A17.851,17.851,0,0,1,2591.021,486.5Zm.043,31.419a13.546,13.546,0,1,0-13.548-13.549A13.578,13.578,0,0,0,2591.063,517.915Z" transform="translate(-2556.773 -486.494)"/></g><path class="a" d="M226.714,500.073l-7.063,7.064a.886.886,0,0,1-1.25,0l-1.247-1.25a.88.88,0,0,1,0-1.249l3.424-3.424h-18.7a.883.883,0,0,1-.883-.883v-1.766a.883.883,0,0,1,.883-.883h18.7l-3.424-3.424a.88.88,0,0,1,0-1.249l1.247-1.25a.886.886,0,0,1,1.25,0l7.063,7.064A.883.883,0,0,1,226.714,500.073Z" transform="translate(-129.458 -464.372)"/></g></svg>