<svg xmlns="http://www.w3.org/2000/svg" xmlns:xlink="http://www.w3.org/1999/xlink" width="36.978" height="53.947" viewBox="0 0 36.978 53.947"><defs><style>.a{fill:#a3a6b9;}.b{clip-path:url(#a);}</style><clipPath id="a"><rect class="a" width="36.978" height="53.947"/></clipPath></defs><g class="b"><path class="a" d="M23.136,27.008a18.263,18.263,0,0,1,8.658,8.9,19.227,19.227,0,0,1,1.536,8.817c-.041,1.03.131,1.674,1.3,2.046a3.5,3.5,0,0,1,2.275,4.041,3.626,3.626,0,0,1-3.676,3.125q-14.74.012-29.478,0A3.671,3.671,0,0,1,.068,50.819a3.522,3.522,0,0,1,2.274-4.045c1.17-.367,1.346-1.005,1.305-2.041a18.554,18.554,0,0,1,2.871-11.27,18.114,18.114,0,0,1,6.206-5.844c1.108-.632,1.1-.646.019-1.284a17.613,17.613,0,0,1-8.85-12.708A23.955,23.955,0,0,1,3.643,8.7a1.192,1.192,0,0,0-.989-1.377A3.641,3.641,0,0,1,.067,3.147,3.643,3.643,0,0,1,3.942,0Q18.519,0,33.1.005a3.672,3.672,0,0,1,3.831,3.2,3.654,3.654,0,0,1-2.564,4.1,1.238,1.238,0,0,0-1.031,1.458,21.724,21.724,0,0,1-.82,7.337A17.822,17.822,0,0,1,23.9,26.533c-.211.119-.411.255-.763.475M18.512,46.341c3.618,0,7.235-.019,10.853.013.886.008,1.235-.316,1.185-1.2s-.005-1.791-.031-2.686A14.9,14.9,0,0,0,19.151,28.52a2.386,2.386,0,0,0-1.158-.045A14.87,14.87,0,0,0,9.836,33.54C7.075,36.871,6.2,40.753,6.412,44.988c.049,1,.31,1.387,1.355,1.373,3.581-.049,7.163-.019,10.745-.02m0-38.732c-3.618,0-7.236.023-10.853-.015-.941-.01-1.3.33-1.236,1.256.052.749,0,1.5.015,2.256a14.888,14.888,0,0,0,10.922,14.2,3.1,3.1,0,0,0,1.679.152,14.965,14.965,0,0,0,8.135-5.1c2.751-3.341,3.6-7.229,3.386-11.46-.049-.959-.307-1.324-1.3-1.312-3.581.045-7.164.018-10.746.02M18.5,4.772q6.877,0,13.754,0a7.7,7.7,0,0,0,1.072-.039.893.893,0,0,0,.83-.956A.94.94,0,0,0,33.3,2.724a5.662,5.662,0,0,0-.857-.036q-13.969,0-27.937,0a5.362,5.362,0,0,0-.857.04A.934.934,0,0,0,2.822,3.8a.9.9,0,0,0,.855.938,8.283,8.283,0,0,0,1.073.037q6.876,0,13.753,0m-.008,44.4c-4.589,0-9.179-.008-13.768.008-.781,0-1.862-.255-1.88.993-.018,1.319,1.11,1.076,1.922,1.077q13.768.021,27.536.006a9.1,9.1,0,0,0,.967-.031.906.906,0,0,0,.885-.912.958.958,0,0,0-.823-1.087,5.473,5.473,0,0,0-1.071-.051q-6.884,0-13.768,0" transform="translate(-0.001 -0.001)"/><path class="a" d="M41.081,45.115c.985-.185,1.3.237,1.34,1.223a10.078,10.078,0,0,0,2.361,6.314c.531.618.475,1.07-.241,1.433-.6.3-1.035,1.364-1.91.255a13.523,13.523,0,0,1-2.916-7.919c-.054-1.062.341-1.47,1.367-1.307" transform="translate(-31.163 -35.372)"/><path class="a" d="M73.036,92.518c-.156.453-.327,1.035-.557,1.594-.164.4-.521.305-.831.2-.639-.223-1.291-.422-1.9-.706-1.331-.619-1.462-1.8-.353-2.766a.581.581,0,0,1,.686-.08c.853.363,1.705.728,2.561,1.084a.565.565,0,0,1,.4.678" transform="translate(-53.871 -71.164)"/></g></svg>