<svg xmlns="http://www.w3.org/2000/svg" width="148.431" height="112.277" viewBox="0 0 148.431 112.277"><defs><style>.a{fill:#43bccd;}.b{fill:#6d32a5;mix-blend-mode:multiply;isolation:isolate;}</style></defs><g transform="translate(1930.001 0)"><path class="a" d="M55.621,44.641,129.837,1.792a13.227,13.227,0,0,1,19.84,11.455v85.7a13.226,13.226,0,0,1-19.84,11.454L55.621,67.549a13.226,13.226,0,0,1,0-22.908" transform="translate(-1931.247 0)"/><path class="b" d="M94.055,44.74,19.839,1.891A13.227,13.227,0,0,0,0,13.346v85.7A13.227,13.227,0,0,0,19.839,110.5L94.055,67.648a13.226,13.226,0,0,0,0-22.908" transform="translate(-1930 -0.011)"/></g></svg>